<svg width="1784" height="500" viewBox="0 0 1784 500" fill="none" xmlns="http://www.w3.org/2000/svg">
    <path
        d="M217.61 1.38527C125.191 13.2408 46.4721 78.3303 13.7306 170.385C-4.38168 220.83 -4.61389 287.779 13.2662 334.969C70.3896 487.464 249.655 547.207 385.265 458.871L399.894 449.573L408.486 456.547C413.362 460.498 425.205 471.657 434.725 481.188C444.246 490.951 453.534 498.855 455.624 498.855C460.268 498.855 546.186 412.844 546.186 408.194C546.186 406.335 531.324 389.83 513.212 371.698L480.47 338.688L485.347 322.881C492.778 298.472 495.1 281.967 495.1 251.05C495.1 205.487 486.74 171.083 465.841 131.332C436.583 75.7732 385.497 32.0703 327.909 13.4733C293.31 2.08265 249.655 -2.56659 217.61 1.38527ZM277.288 136.446C327.909 147.372 362.741 194.097 362.741 251.282C362.741 326.6 305.617 376.115 230.381 366.119C173.026 358.447 132.854 310.328 132.854 248.958C132.854 193.864 166.292 149.464 217.146 137.143C232.471 133.424 261.497 133.191 277.288 136.446Z"
        fill="#FAFAFA" />
    <path
        d="M590.305 245.467V482.578H655.323H720.342V397.729V312.881H799.293H878.244V397.729V482.578H943.262H1008.28V245.467V8.35497H943.262H878.244V93.2037V178.052H799.293H720.342V93.2037V8.35497H655.323H590.305V245.467Z"
        fill="#FAFAFA" />
    <path
        d="M1141.8 201.072C1106.97 209.673 1090.25 259.187 1108.6 299.403C1118.81 321.72 1137.16 331.483 1160.38 327.066C1171.29 324.974 1172.22 324.974 1176.63 330.321C1182.44 337.295 1187.31 337.759 1192.42 331.948C1197.07 326.834 1197.3 322.417 1193.12 316.838C1190.33 313.118 1190.56 311.259 1195.67 302.193C1202.87 289.407 1205.43 259.652 1201.01 241.288C1194.28 212.927 1167.34 194.795 1141.8 201.072ZM1163.63 228.037C1173.61 233.151 1177.79 244.31 1177.79 265.696C1177.79 289.175 1175.47 293.127 1167.11 284.526C1160.84 278.482 1160.61 278.249 1154.11 282.201C1146.68 286.618 1146.21 289.175 1151.09 295.684C1155.73 301.728 1155.5 303.588 1149.93 303.588C1136.23 303.588 1126.71 287.083 1126.71 263.836C1126.71 247.332 1130.65 236.406 1139.48 229.664C1146.91 223.62 1154.57 223.156 1163.63 228.037Z"
        fill="#FAFAFA" />
    <path
        d="M1291.58 245.704V290.104L1284.84 296.845C1279.73 301.727 1275.79 303.587 1269.52 303.587C1248.15 303.587 1245.13 296.148 1245.13 244.309V203.628H1233.52H1221.91V249.423C1221.91 303.819 1224 310.793 1242.35 321.719C1262.78 333.574 1295.29 328.46 1307.37 311.258C1315.73 298.937 1317.12 290.104 1317.12 246.633V204.325L1308.53 202.698C1290.18 199.676 1291.58 196.189 1291.58 245.704Z"
        fill="#FAFAFA" />
    <path
        d="M1378.19 203.162C1371.46 203.627 1365.88 204.092 1365.88 204.557C1365.88 204.789 1356.59 231.522 1344.98 264.067C1333.61 296.379 1324.78 323.81 1325.48 324.972C1326.18 325.902 1331.28 326.832 1336.86 326.832C1346.84 326.832 1347.31 326.6 1353.11 315.209L1358.92 303.586H1380.51H1402.11L1405.13 315.209L1408.15 326.832H1420.68C1430.21 326.832 1433.22 325.902 1433.22 323.345C1433.22 319.161 1393.75 205.254 1391.89 203.627C1390.96 202.93 1384.69 202.697 1378.19 203.162ZM1385.62 257.093C1388.87 267.787 1391.43 277.318 1391.43 278.48C1391.43 279.41 1385.62 280.34 1378.65 280.34C1370.3 280.34 1365.88 279.41 1365.88 277.55C1365.88 273.831 1378.19 236.172 1379.12 237.102C1379.58 237.334 1382.37 246.4 1385.62 257.093Z"
        fill="#FAFAFA" />
    <path
        d="M1770.16 203.627L1759.94 204.789L1746.47 228.733L1733.24 252.909L1726.74 241.518C1713.27 218.04 1706.53 207.114 1703.98 205.487C1702.59 204.557 1675.19 203.859 1642.91 203.627H1584.16V215.25V226.873H1601.57H1618.99V276.853V326.832H1630.6H1642.21V276.853V226.873H1659.39C1677.97 226.873 1679.36 225.943 1679.36 213.39C1679.36 208.974 1685.4 217.807 1700.26 244.308L1721.16 281.502V304.051V326.832H1732.77H1744.38V302.888V279.177L1764.12 244.54C1775.03 225.711 1783.86 208.741 1783.86 206.881C1783.86 202.697 1781.77 202.232 1770.16 203.627Z"
        fill="#FAFAFA" />
    <path
        d="M1447.16 265.23V326.832H1487.79H1528.43V314.047V301.261H1500.56H1472.7V252.444V203.627H1459.93H1447.16V265.23Z"
        fill="#FAFAFA" />
    <path d="M1544.68 265.23V326.832H1556.3H1567.91V265.23V203.627H1556.3H1544.68V265.23Z"
        fill="#FAFAFA" />
    <path
        d="M1260.23 359.147C1237.01 365.191 1224.24 387.739 1224.24 422.144C1224.24 451.899 1233.52 470.264 1253.03 479.33C1274.39 489.326 1296.92 484.909 1311.78 467.939C1322.23 456.083 1325.25 445.158 1325.25 419.587C1325.01 400.292 1324.32 395.876 1318.51 384.253C1313.64 374.257 1309.69 369.607 1302.03 364.958C1291.11 358.682 1272.3 355.892 1260.23 359.147ZM1291.58 389.134C1302.49 400.292 1304.35 436.324 1294.6 449.574C1287.16 459.803 1278.81 462.825 1268.82 458.873C1254.89 453.759 1249.78 443.53 1249.78 421.679C1249.78 394.481 1257.67 382.625 1276.02 382.625C1282.75 382.625 1286.7 384.253 1291.58 389.134Z"
        fill="#FAFAFA" />
    <path
        d="M1109.52 363.092C1108.83 365.185 1108.13 391.22 1108.13 420.976C1108.13 450.731 1108.83 476.767 1109.52 478.859C1110.45 481.648 1114.17 482.578 1122.3 482.578H1133.67V457.007V431.204L1156.43 431.901L1178.95 432.599V457.705V482.578H1191.26H1203.34V420.743V358.676L1196.14 360.303C1192.19 361 1186.39 361.698 1183.6 361.698C1178.49 361.698 1178.26 362.395 1178.72 383.084L1178.95 404.703L1156.43 405.401L1133.67 406.098V382.619V359.373H1122.3C1114.17 359.373 1110.45 360.303 1109.52 363.092Z"
        fill="#FAFAFA" />
    <path
        d="M1347.31 420.976V482.578H1358.92H1370.53L1370.76 444.687V407.028L1384.23 443.06L1397.93 479.091H1407.91H1417.66L1430.67 444.222L1443.67 409.352L1444.37 446.082L1445.07 482.578H1456.44H1468.05V420.976V359.141L1452.5 359.838L1436.94 360.535L1423.01 399.357L1409.07 438.41L1400.25 414.467C1395.37 401.449 1388.64 383.782 1385.39 374.948L1379.35 359.373H1363.33H1347.31V420.976Z"
        fill="#FAFAFA" />
    <path
        d="M1495.92 420.976V482.578H1540.04H1584.16V476.999C1584.16 473.977 1583.46 468.165 1582.77 464.214L1581.37 457.007H1551.42H1521.46V444.222V431.436H1548.17H1574.87V418.651V405.866H1548.17H1521.46V395.405V384.944H1551.65H1581.84V372.159V359.373H1538.88H1495.92V420.976Z"
        fill="#FAFAFA" />
</svg>