<svg width="81" height="80" viewBox="0 0 81 80" fill="none" xmlns="http://www.w3.org/2000/svg">
    <g clip-path="url(#clip0_429_13870)">
        <path
            d="M37.8727 6.35547L38.8475 14.3864C38.0885 14.4809 37.3427 14.6379 36.6263 14.8562L34.2452 7.12741C35.3173 6.79468 36.7914 6.48058 37.8727 6.35547ZM19.6289 22.7792C19.8766 21.6866 20.3414 20.2531 20.7742 19.2536L28.2184 22.4239C27.9253 23.1174 27.6897 23.844 27.5178 24.5827L19.6289 22.7792ZM25.8852 43.2572L31.393 37.3291C30.8351 36.8074 30.3237 36.2417 29.871 35.6454L23.4016 40.5034C24.0501 41.3752 25.0596 42.4944 25.8852 43.2572ZM43.1275 48.8524L42.1527 40.8201C42.9119 40.7256 43.6576 40.5686 44.374 40.3516L46.7551 48.0804C45.6844 48.4131 44.2102 48.7273 43.1275 48.8524ZM60.2273 35.9529C60.66 34.9534 61.1248 33.52 61.3725 32.4273L53.4849 30.6238C53.3131 31.3638 53.0761 32.0892 52.7831 32.7826L60.2273 35.9529ZM49.6092 17.8788L55.1172 11.9507C55.9401 12.7107 56.9483 13.83 57.6008 14.7058L51.1314 19.5624C50.6786 18.9661 50.1673 18.4004 49.6092 17.8788Z"
            fill="#00B6B8" />
        <path
            d="M37.8727 6.35547L38.8475 14.3864C38.0885 14.4809 37.3427 14.6379 36.6263 14.8562L34.2452 7.12741C35.3173 6.79468 36.7914 6.48058 37.8727 6.35547ZM19.6289 22.7792C19.8766 21.6866 20.3414 20.2531 20.7742 19.2536L28.2184 22.4239C27.9253 23.1174 27.6897 23.844 27.5178 24.5827L19.6289 22.7792ZM25.8852 43.2572L31.393 37.3291C30.8351 36.8074 30.3237 36.2417 29.871 35.6454L23.4016 40.5034C24.0501 41.3752 25.0596 42.4944 25.8852 43.2572ZM43.1275 48.8524L42.1527 40.8201C42.9119 40.7256 43.6576 40.5686 44.374 40.3516L46.7551 48.0804C45.6844 48.4131 44.2102 48.7273 43.1275 48.8524ZM60.2273 35.9529C60.66 34.9534 61.1248 33.52 61.3725 32.4273L53.4849 30.6238C53.3131 31.3638 53.0761 32.0892 52.7831 32.7826L60.2273 35.9529ZM49.6092 17.8788L55.1172 11.9507C55.9401 12.7107 56.9483 13.83 57.6008 14.7058L51.1314 19.5624C50.6786 18.9661 50.1673 18.4004 49.6092 17.8788Z"
            fill="#00BABA" />
        <path
            d="M45.3408 11.6969L44.3712 14.8499C43.6561 14.6329 42.909 14.4759 42.15 14.3814L43.0609 6.83632L43.3005 4.95703C44.5963 5.11541 45.8827 5.3856 47.1265 5.76225L45.3408 11.6969ZM31.388 17.8791C30.8421 18.3902 30.332 18.9585 29.8712 19.5667L23.7907 15.0057L22.2792 13.857C23.0623 12.8215 23.9412 11.846 24.8947 10.9529L29.1694 15.494L31.388 17.8791ZM21.2627 35.7537L19.4755 36.5029C18.9655 35.3025 18.558 34.0527 18.2637 32.787L24.3375 31.3562L27.5189 30.6268C27.6934 31.3749 27.9278 32.1002 28.2167 32.787L21.2627 35.7537ZM36.6303 40.3548L35.6463 43.5543L33.8751 49.4411C35.1189 49.8177 36.4053 50.0879 37.7011 50.2463L37.9514 48.2751L38.8516 40.8218C38.0912 40.7287 37.3441 40.5716 36.6303 40.3548ZM49.613 37.3268C50.1603 36.8145 50.669 36.2474 51.1299 35.6392L57.1731 40.1711L58.7219 41.3476C57.9388 42.383 57.0586 43.36 56.1064 44.2517L51.8742 39.7585L49.613 37.3268ZM61.5269 18.7016L59.741 19.4509L52.7856 22.4176C53.0759 23.1043 53.3103 23.8311 53.4834 24.5777L56.7607 23.8271L62.74 22.4176C62.4431 21.1518 62.0356 19.9021 61.5269 18.7016Z"
            fill="#8DD906" />
        <path
            d="M28.3778 5.74271C29.6443 5.04131 30.98 4.44638 32.3476 3.97656L35.1894 12.263C34.3039 12.5704 33.4529 12.9524 32.6445 13.401L28.3778 5.74271ZM15.5 27.1668C15.524 25.7135 15.6745 24.2601 15.9474 22.8466L24.5821 24.5369C24.4103 25.4353 24.3145 26.359 24.2985 27.3026L15.5 27.1668ZM24.1067 46.4696C25.204 47.4211 26.3853 48.281 27.6211 49.0236L32.1435 41.4678C31.3472 40.9874 30.5948 40.4403 29.8956 39.8348L24.1067 46.4696ZM52.6236 49.4641C51.3572 50.1668 50.0214 50.7618 48.6538 51.2316L45.7974 42.9013C46.6802 42.5965 47.5286 42.2172 48.3355 41.77L52.6236 49.4641ZM65.0526 32.3615C65.3255 30.948 65.4774 29.4947 65.5 28.0413L56.7002 27.9055C56.6815 28.8491 56.5817 29.7728 56.4086 30.6699L65.0526 32.3615ZM53.3781 6.18461C54.6139 6.92727 55.7952 7.78706 56.8925 8.73868L51.1276 15.3468C50.4272 14.7373 49.6747 14.1876 48.8771 13.7044L53.3781 6.18461Z"
            fill="#0183D9" />
        <path
            d="M27.611 6.18734C26.3699 6.934 25.1887 7.79379 24.098 8.74275L29.8683 15.3495C30.5674 14.74 31.3211 14.1903 32.1175 13.7071L27.611 6.18734ZM15.502 28.0533C15.5153 28.7867 15.5605 29.5147 15.6338 30.2175C15.7084 30.9229 15.8162 31.6469 15.9561 32.3722L24.5921 30.6767C24.419 29.7796 24.3191 28.8559 24.3004 27.9122L15.502 28.0533ZM28.3883 49.4669C29.6534 50.1683 30.9877 50.7632 32.358 51.2357L35.2091 42.9041C34.3263 42.5993 33.4766 42.22 32.6697 41.7728L28.3883 49.4669ZM53.3909 49.021C54.632 48.2744 55.8133 47.4145 56.9052 46.4643L51.111 39.8295C50.4119 40.4365 49.6595 40.9834 48.8632 41.464L53.3909 49.021ZM65.4987 27.1563C65.4854 26.423 65.4401 25.695 65.3669 24.9922C65.2923 24.2868 65.1845 23.5628 65.0446 22.8374L56.418 24.5317C56.5884 25.4301 56.6856 26.3538 56.7015 27.2974L65.4987 27.1563ZM48.4204 13.2759L52.6139 5.74148C51.3488 5.04007 50.0132 4.44515 48.6441 3.97266L45.8076 12.2618C46.6932 12.5679 47.5441 12.9499 48.3525 13.3984L48.4204 13.2759Z"
            fill="#00A8F2" />
        <path
            d="M52.6139 5.74148L48.4204 13.2759L48.3525 13.3984C47.5441 12.9499 46.6932 12.5679 45.8076 12.2618L48.6441 3.97266C50.0132 4.44515 51.3488 5.04007 52.6139 5.74148ZM24.098 8.74275C25.1887 7.79379 26.3699 6.934 27.611 6.18734L32.1175 13.7071C31.3211 14.1903 30.5674 14.74 29.8683 15.3495L24.098 8.74275ZM15.6338 30.2175C15.5605 29.5147 15.5153 28.7867 15.502 28.0533L24.3004 27.9122C24.3191 28.8559 24.419 29.7796 24.5921 30.6767L15.9561 32.3722C15.8162 31.6469 15.7084 30.9229 15.6338 30.2175ZM28.3883 49.4669C29.6534 50.1683 30.9877 50.7632 32.358 51.2357L35.2091 42.9041C34.3263 42.5993 33.4766 42.22 32.6697 41.7728L28.3883 49.4669ZM56.9052 46.4643C55.8133 47.4145 54.6321 48.2744 53.3909 49.021L48.8632 41.464C49.6595 40.9834 50.4119 40.4365 51.111 39.8295L56.9052 46.4643ZM65.4987 27.1563C65.4854 26.423 65.4401 25.695 65.3669 24.9922C65.2923 24.2868 65.1845 23.5628 65.0446 22.8374L56.418 24.5317C56.5884 25.4301 56.6856 26.3538 56.7015 27.2974L65.4987 27.1563Z"
            fill="#00A1DF" />
        <path
            d="M41.8931 11.4342L42.6695 2.70515C41.9638 2.64524 41.246 2.61328 40.5362 2.61328C39.8024 2.61328 39.0593 2.64657 38.3242 2.71048L39.1046 11.4328C39.5654 11.3929 40.0315 11.3716 40.5015 11.3716C40.9703 11.3742 41.4338 11.3955 41.8931 11.4342ZM60.9857 13.2742C61.8207 14.4646 62.5532 15.7295 63.1631 17.0356L55.1916 20.7384C54.7961 19.8915 54.33 19.0847 53.8013 18.3258L60.9857 13.2742ZM17.8398 17.0475C18.4524 15.7361 19.1849 14.4712 20.0145 13.2862L27.199 18.3311C26.6703 19.09 26.2042 19.8969 25.81 20.7436L17.8398 17.0475ZM20.0182 41.9537C19.1832 40.7634 18.4508 39.4985 17.8409 38.1924L25.8324 34.4816C26.2279 35.3258 26.6953 36.13 27.2253 36.8862L20.0182 41.9537ZM60.9893 41.9416C61.819 40.7566 62.5514 39.4919 63.164 38.1803L55.1752 34.4749C54.7784 35.319 54.3123 36.1233 53.7823 36.8809L60.9893 41.9416ZM38.3345 52.5174L39.115 43.7445C39.5717 43.7831 40.0338 43.8044 40.5026 43.8044C40.9714 43.8044 41.4361 43.7831 41.8955 43.7445L42.6826 52.5187C41.9515 52.5813 41.223 52.6133 40.5145 52.6133C39.8021 52.6133 39.0696 52.5813 38.3345 52.5174Z"
            fill="#00C000" />
        <path
            d="M12.7967 66.852C14.7188 67.4168 16.3872 68.9982 16.3872 71.6243C16.3872 74.6763 14.2103 77.3874 9.29235 77.3874H0.785156V57.6149H9.32065C12.8817 57.6149 15.3394 60.0171 15.3394 62.7565C15.3394 64.9593 13.8704 66.3425 12.7955 66.7388L12.7967 66.852ZM8.41565 65.4392C9.71465 65.4392 10.5631 64.6479 10.5631 63.4899C10.5631 62.3885 9.74426 61.5406 8.38726 61.5406H5.53186V65.4392H8.41565ZM8.86756 73.4604C10.5064 73.4604 11.3831 72.5289 11.3831 71.201C11.3831 69.7895 10.4215 68.9404 8.86756 68.9404H5.53186V73.4604H8.86756ZM28.3651 77.3858H23.6171V69.591L16.2403 57.6133H21.7233L24.7745 62.9801C25.4813 64.2242 26.0748 65.2973 26.1031 65.3244H26.1881C26.2164 65.2961 26.8099 64.1947 27.5167 62.9801L30.6812 57.6133H35.7407L28.3651 69.591V77.3858ZM52.8353 72.5555C52.8353 67.8669 52.8923 65.5508 52.8923 65.5225H52.8353C52.8083 65.5508 51.8453 67.3303 50.8863 69.0236L48.9623 72.4977H46.3063L44.3843 69.0815C43.3963 67.3291 42.4623 65.5496 42.4353 65.5213H42.3503C42.3503 65.5496 42.4073 67.8656 42.4073 72.5543V77.3833H37.6592V57.6145H42.6893L47.6633 66.4553H47.7483L52.7503 57.6145H57.5833V77.3857H52.8353V72.5555ZM65.7173 74.1098L64.5303 77.3858H59.5273L67.1593 57.6133H72.5562L80.2162 77.3858H75.1283L73.9402 74.1098H65.7173ZM70.9733 65.8622C70.3533 64.223 69.9002 62.9813 69.8712 62.9518H69.7863C69.7583 62.9813 69.3062 64.1959 68.6842 65.8339L67.2722 69.7879H72.3862L70.9733 65.8622Z"
            fill="#1C426E" />
    </g>
    <defs>
        <clipPath id="clip0_429_13870">
            <rect width="80" height="80" fill="white" transform="translate(0.5)" />
        </clipPath>
    </defs>
</svg>